<?xml version="1.0" encoding="utf-8"?>
<!-- Generator: Adobe Illustrator 26.3.1, SVG Export Plug-In . SVG Version: 6.00 Build 0)  -->
<svg version="1.1" id="Layer_1" xmlns="http://www.w3.org/2000/svg" xmlns:xlink="http://www.w3.org/1999/xlink" x="0px" y="0px"
	 viewBox="0 0 24 14" style="enable-background:new 0 0 24 14;" xml:space="preserve">
<style type="text/css">
	.st0{fill-rule:evenodd;clip-rule:evenodd;fill:#83B3D3;}
</style>
<path class="st0" d="M23.5,0.9c0.2-0.5,0-0.9-0.8-0.9H20c-0.7,0-1,0.3-1.1,0.7c0,0-1.3,3.2-3.2,5.3c-0.6,0.6-0.9,0.8-1.2,0.8
	c-0.2,0-0.4-0.2-0.4-0.7V0.9C14,0.3,13.8,0,13.3,0H9.2C8.7,0,8.5,0.3,8.5,0.6c0,0.6,0.9,0.8,1,2.5v3.8c0,0.8-0.2,1-0.5,1
	C8.1,7.9,6,4.7,4.7,1C4.5,0.3,4.2,0,3.5,0H0.9C0.2,0,0,0.3,0,0.7c0,0.7,0.9,4.1,4.1,8.6c2.2,3.1,5.2,4.7,8,4.7c1.7,0,1.9-0.4,1.9-1
	v-2.3c0-0.7,0.2-0.9,0.7-0.9c0.4,0,1.1,0.2,2.6,1.7c1.8,1.7,2.1,2.5,3.1,2.5H23c0.8,0,1.1-0.4,0.9-1.1c-0.2-0.7-1.1-1.8-2.2-3
	c-0.6-0.7-1.5-1.5-1.8-1.9c-0.4-0.5-0.3-0.7,0-1.1C19.9,6.9,23.1,2.5,23.5,0.9L23.5,0.9z"/>
</svg>
