<?xml version="1.0" encoding="utf-8"?>
<!-- Generator: Adobe Illustrator 26.3.1, SVG Export Plug-In . SVG Version: 6.00 Build 0)  -->
<svg version="1.1" id="Layer_1" xmlns="http://www.w3.org/2000/svg" xmlns:xlink="http://www.w3.org/1999/xlink" x="0px" y="0px"
	 viewBox="0 0 140 37" style="enable-background:new 0 0 140 37;" xml:space="preserve">
<style type="text/css">
	.st0{clip-path:url(#SVGID_00000009587826516670461620000005179943266640820629_);}
	.st1{fill:#83B3D3;}
	.st2{clip-path:url(#SVGID_00000086693667766747864440000017848331419475314348_);}
	.st3{clip-path:url(#SVGID_00000054954045551695987260000009938333711364547728_);}
	.st4{clip-path:url(#SVGID_00000069365831739776126860000014536316645556104352_);}
</style>
<g>
	<defs>
		<rect id="SVGID_1_" y="10" width="18" height="17"/>
	</defs>
	<clipPath id="SVGID_00000134931368041688028150000011659006391675720605_">
		<use xlink:href="#SVGID_1_"  style="overflow:visible;"/>
	</clipPath>
	<g style="clip-path:url(#SVGID_00000134931368041688028150000011659006391675720605_);">
		<path class="st1" d="M9,10l2.1,6.5H18l-5.6,4l2.2,6.5L9,23l-5.6,4l2.2-6.5l-5.6-4h6.9L9,10z"/>
	</g>
</g>
<g>
	<defs>
		<rect id="SVGID_00000064355126619499161990000009665035993550169496_" x="24" y="10" width="18" height="17"/>
	</defs>
	<clipPath id="SVGID_00000070836030735049130030000015178240106112771001_">
		<use xlink:href="#SVGID_00000064355126619499161990000009665035993550169496_"  style="overflow:visible;"/>
	</clipPath>
	<g style="clip-path:url(#SVGID_00000070836030735049130030000015178240106112771001_);">
		<path class="st1" d="M33,10l2.1,6.5H42l-5.6,4l2.2,6.5L33,23l-5.6,4l2.2-6.5l-5.6-4h6.9L33,10z"/>
	</g>
</g>
<g>
	<defs>
		<rect id="SVGID_00000015318568169718795560000003806056969803970475_" x="48" y="10" width="18" height="17"/>
	</defs>
	<clipPath id="SVGID_00000140735516347655578070000003862345701507278995_">
		<use xlink:href="#SVGID_00000015318568169718795560000003806056969803970475_"  style="overflow:visible;"/>
	</clipPath>
	<g style="clip-path:url(#SVGID_00000140735516347655578070000003862345701507278995_);">
		<path class="st1" d="M57,10l2.1,6.5H66l-5.6,4l2.2,6.5L57,23l-5.6,4l2.2-6.5l-5.6-4h6.9L57,10z"/>
	</g>
</g>
<g>
	<defs>
		<rect id="SVGID_00000018204516935310445810000006062937468703537803_" x="72" y="10" width="18" height="17"/>
	</defs>
	<clipPath id="SVGID_00000026875796525813461840000011459737130217046695_">
		<use xlink:href="#SVGID_00000018204516935310445810000006062937468703537803_"  style="overflow:visible;"/>
	</clipPath>
	<g style="clip-path:url(#SVGID_00000026875796525813461840000011459737130217046695_);">
		<path class="st1" d="M81,10l2.1,6.5H90l-5.6,4l2.2,6.5L81,23l-5.6,4l2.2-6.5l-5.6-4h6.9L81,10z"/>
	</g>
</g>
</svg>
