<?xml version="1.0" encoding="utf-8"?>
<!-- Generator: Adobe Illustrator 26.3.1, SVG Export Plug-In . SVG Version: 6.00 Build 0)  -->
<svg version="1.1" id="Layer_1" xmlns="http://www.w3.org/2000/svg" xmlns:xlink="http://www.w3.org/1999/xlink" x="0px" y="0px"
	 viewBox="0 0 16 15" style="enable-background:new 0 0 16 15;" xml:space="preserve">
<style type="text/css">
	.st0{opacity:0.3;}
</style>
<path class="st0" d="M5.8,10c0.3,0,0.5-0.2,0.5-0.5S6.1,9,5.8,9S5.2,9.2,5.2,9.5S5.4,10,5.8,10z"/>
<path class="st0" d="M15,2h-2V0h-1v2H4V0H3v2H1C0.4,2,0,2.4,0,3v11c0,0.5,0.4,1,1,1h14c0.5,0,1-0.5,1-1V3C16,2.4,15.5,2,15,2z
	 M15,14H1V7h14V14z M1,6V3h2v2h1V3h8v2h1V3h2v3H1z"/>
<path class="st0" d="M8,10c0.3,0,0.5-0.2,0.5-0.5S8.3,9,8,9S7.5,9.2,7.5,9.5S7.7,10,8,10z"/>
<path class="st0" d="M10.2,10c0.3,0,0.5-0.2,0.5-0.5S10.6,9,10.2,9S9.8,9.2,9.8,9.5S9.9,10,10.2,10z"/>
<path class="st0" d="M5.8,11c-0.3,0-0.5,0.2-0.5,0.5S5.4,12,5.8,12s0.5-0.2,0.5-0.5S6.1,11,5.8,11z"/>
<path class="st0" d="M3.5,10C3.8,10,4,9.8,4,9.5S3.8,9,3.5,9S3,9.2,3,9.5S3.2,10,3.5,10z"/>
<path class="st0" d="M3.5,11C3.2,11,3,11.2,3,11.5S3.2,12,3.5,12S4,11.8,4,11.5S3.8,11,3.5,11z"/>
<path class="st0" d="M8,11c-0.3,0-0.5,0.2-0.5,0.5S7.7,12,8,12s0.5-0.2,0.5-0.5S8.3,11,8,11z"/>
<path class="st0" d="M10.2,11c-0.3,0-0.5,0.2-0.5,0.5S9.9,12,10.2,12s0.5-0.2,0.5-0.5S10.6,11,10.2,11z"/>
<path class="st0" d="M12.5,10c0.3,0,0.5-0.2,0.5-0.5S12.8,9,12.5,9S12,9.2,12,9.5S12.2,10,12.5,10z"/>
<path class="st0" d="M12.5,11c-0.3,0-0.5,0.2-0.5,0.5s0.2,0.5,0.5,0.5s0.5-0.2,0.5-0.5S12.8,11,12.5,11z"/>
</svg>
