<?xml version="1.0" encoding="utf-8"?>
<!-- Generator: Adobe Illustrator 26.3.1, SVG Export Plug-In . SVG Version: 6.00 Build 0)  -->
<svg version="1.1" id="Layer_1" xmlns="http://www.w3.org/2000/svg" xmlns:xlink="http://www.w3.org/1999/xlink" x="0px" y="0px"
	 viewBox="0 0 20 20" style="enable-background:new 0 0 20 20;" xml:space="preserve">
<path d="M19.5,18l-3.7-3.7c1-1.3,1.7-3,1.7-4.9c0-4.4-3.6-8-8-8c-4.4,0-8,3.7-8,8.1c0,4.4,3.6,8,8.1,7.9c1.8,0,3.5-0.6,4.8-1.7
	l3.7,3.7L19.5,18z M9.5,15.5c-3.3,0-6-2.7-6-6c0-3.3,2.7-6,6-6s6,2.7,6,6C15.5,12.9,12.8,15.5,9.5,15.5z"/>
</svg>
