<?xml version="1.0" encoding="utf-8"?>
<!-- Generator: Adobe Illustrator 26.3.1, SVG Export Plug-In . SVG Version: 6.00 Build 0)  -->
<svg version="1.1" id="Layer_1" xmlns="http://www.w3.org/2000/svg" xmlns:xlink="http://www.w3.org/1999/xlink" x="0px" y="0px"
	 viewBox="0 0 20 20" style="enable-background:new 0 0 20 20;" xml:space="preserve">
<path d="M20,18.3l-4.1-4.1c1.1-1.4,1.9-3.3,1.9-5.4c0-4.9-4-8.8-8.9-8.8S0,4.1,0,8.9c0,4.9,4,8.8,8.9,8.8c2,0,3.9-0.7,5.4-1.9
	l4.1,4.1L20,18.3z M8.9,15.6c-3.7,0-6.7-3-6.7-6.6c0-3.6,3-6.6,6.7-6.6s6.7,3,6.7,6.6C15.6,12.6,12.6,15.6,8.9,15.6z"/>
</svg>
