<?xml version="1.0" encoding="utf-8"?>
<!-- Generator: Adobe Illustrator 26.3.1, SVG Export Plug-In . SVG Version: 6.00 Build 0)  -->
<svg version="1.1" id="Layer_1" xmlns="http://www.w3.org/2000/svg" xmlns:xlink="http://www.w3.org/1999/xlink" x="0px" y="0px"
	 viewBox="0 0 28 31" style="enable-background:new 0 0 28 31;" xml:space="preserve">
<style type="text/css">
	.st0{fill:#7DB54F;}
	.st1{fill:#FFFFFF;}
</style>
<path d="M9.2,30.5c-0.3,0-0.6-0.1-0.8-0.4c-5.6-6.1-6.9-7.5-7.3-7.9c-1.9-2.4-1.5-5.8,1-7.6c1-0.8,2.3-1.2,3.5-1.1
	c1.3,0,2.6,0.5,3.6,1.3c2.4-2,5.9-1.7,8,0.6c0.8,1,1.3,2.2,1.3,3.5s-0.5,2.5-1.3,3.4l-7.3,7.9C9.9,30.4,9.6,30.5,9.2,30.5z M3,21
	c0.3,0.4,3.6,4,6.3,6.9l6.4-7c0.5-0.5,0.7-1.2,0.7-2c0-1.8-1.6-3.3-3.4-3.3c-1,0-2.1,0.5-2.8,1.3c-0.3,0.3-0.6,0.4-0.9,0.4
	s-0.6-0.2-0.8-0.4c-0.7-0.8-1.8-1.3-2.8-1.3c-1.9,0-3.4,1.5-3.4,3.3C2.2,19.8,2.6,20.5,3,21C2.9,21,2.9,21,3,21z"/>
<path class="st0" d="M17.6,0.5L17.6,0.5C23.3,0.5,28,5,28,10.5l0,0c0,5.5-4.7,10-10.4,10l0,0c-5.7,0-10.4-4.5-10.4-10l0,0
	C7.3,5,11.9,0.5,17.6,0.5z"/>
<path class="st1" d="M12.7,13.8h1.5V8.9l0.1-0.6l-0.4,0.5l-1.1,0.8l-0.4-0.5l2.3-1.7h0.4v6.4h1.5v0.7h-3.6
	C12.7,14.5,12.7,13.8,12.7,13.8z M21.8,9.1c0,0.4-0.1,0.7-0.2,1.1c-0.3,0.8-0.7,1.5-1.2,2.2c-0.3,0.4-0.5,0.7-0.8,1L19,13.8l0,0
	l0.6-0.1h2.3v0.7h-4.1v-0.3c0.4-0.4,0.8-0.9,1.2-1.3c0.5-0.6,0.9-1.2,1.3-1.8c0.2-0.3,0.3-0.6,0.4-1c0.1-0.3,0.2-0.6,0.2-0.9
	c0-0.3-0.1-0.6-0.3-0.8S20.1,8,19.8,8c-0.2,0-0.5,0-0.7,0.2c-0.2,0.1-0.5,0.2-0.6,0.4L18.1,8c0.2-0.2,0.5-0.4,0.8-0.5
	c0.2-0.1,0.5-0.1,0.9-0.1c0.3,0,0.5,0,0.8,0.1c0.4,0.1,0.8,0.5,0.9,0.9C21.7,8.6,21.8,8.8,21.8,9.1z"/>
</svg>
